<?xml version="1.0" encoding="UTF-8" standalone="no"?>
<!-- Created with Inkscape (http://www.inkscape.org/) -->

<svg
   xmlns:dc="http://purl.org/dc/elements/1.1/"
   xmlns:cc="http://creativecommons.org/ns#"
   xmlns:rdf="http://www.w3.org/1999/02/22-rdf-syntax-ns#"
   xmlns:svg="http://www.w3.org/2000/svg"
   xmlns="http://www.w3.org/2000/svg"
   xmlns:xlink="http://www.w3.org/1999/xlink"
   xmlns:sodipodi="http://sodipodi.sourceforge.net/DTD/sodipodi-0.dtd"
   xmlns:inkscape="http://www.inkscape.org/namespaces/inkscape"
   width="400"
   height="300"
   viewBox="0 0 105.83333 79.374999"
   version="1.1"
   id="svg8"
   inkscape:version="0.92.4 (unknown)"
   sodipodi:docname="pedigreegenetree.svg">
  <defs
     id="defs2" />
  <sodipodi:namedview
     id="base"
     pagecolor="#ffffff"
     bordercolor="#666666"
     borderopacity="1.0"
     inkscape:pageopacity="0.0"
     inkscape:pageshadow="2"
     inkscape:zoom="5.3433333"
     inkscape:cx="204.74269"
     inkscape:cy="131.79194"
     inkscape:document-units="mm"
     inkscape:current-layer="layer1"
     showgrid="true"
     units="px"
     inkscape:window-width="2518"
     inkscape:window-height="1836"
     inkscape:window-x="401"
     inkscape:window-y="76"
     inkscape:window-maximized="0"
     inkscape:snap-text-baseline="true">
    <inkscape:grid
       type="xygrid"
       id="grid3713"
       empspacing="5"
       spacingx="0.26458333"
       spacingy="0.26458333" />
  </sodipodi:namedview>
  <metadata
     id="metadata5">
    <rdf:RDF>
      <cc:Work
         rdf:about="">
        <dc:format>image/svg+xml</dc:format>
        <dc:type
           rdf:resource="http://purl.org/dc/dcmitype/StillImage" />
        <dc:title></dc:title>
      </cc:Work>
    </rdf:RDF>
  </metadata>
  <g
     inkscape:label="Layer 1"
     inkscape:groupmode="layer"
     id="layer1"
     transform="translate(0,-217.625)">
    <path
       id="path1560"
       style="fill:none;stroke:#000000;stroke-width:0.26458333;stroke-linecap:butt;stroke-linejoin:miter;stroke-opacity:1;fill-opacity:1;stroke-miterlimit:4;stroke-dasharray:none"
       d="m 51.593749,226.88542 v 6.61458 0 m -5.291666,-6.61458 h 10.583333 m -15.875002,-2.64584 h 5.291667 v 5.29166 h -5.291667 z m 21.134004,2.59683 a 2.6458333,2.6458333 0 0 1 -2.645833,2.64583 2.6458333,2.6458333 0 0 1 -2.645834,-2.64583 2.6458333,2.6458333 0 0 1 2.645834,-2.64583 2.6458333,2.6458333 0 0 1 2.645833,2.64583 z" />
    <path
       style="fill:none;fill-opacity:1;stroke:#000000;stroke-width:0.26458332;stroke-linecap:butt;stroke-linejoin:miter;stroke-miterlimit:4;stroke-dasharray:none;stroke-opacity:1"
       d="m 130.96875,262.60417 v 6.61458 0"
       id="path840"
       inkscape:connector-curvature="0" />
    <path
       style="fill:none;fill-opacity:1;stroke:#000000;stroke-width:0.26458332;stroke-linecap:butt;stroke-linejoin:miter;stroke-miterlimit:4;stroke-dasharray:none;stroke-opacity:1"
       d="m 125.67709,262.60417 h 10.58333"
       id="path838"
       inkscape:connector-curvature="0" />
    <path
       style="fill:none;fill-opacity:1;stroke:#000000;stroke-width:0.26458332;stroke-linecap:butt;stroke-linejoin:miter;stroke-miterlimit:4;stroke-dasharray:none;stroke-opacity:1"
       d="m 120.38542,259.95833 h 5.29167 v 5.29166 h -5.29167 z"
       id="path836"
       inkscape:connector-curvature="0" />
    <path
       style="fill:none;fill-opacity:1;stroke:#000000;stroke-width:0.26458332;stroke-linecap:butt;stroke-linejoin:miter;stroke-miterlimit:4;stroke-dasharray:none;stroke-opacity:1"
       d="m 141.51942,262.55516 a 2.6458333,2.6458333 0 0 1 -2.64583,2.64583 2.6458333,2.6458333 0 0 1 -2.64583,-2.64583 2.6458333,2.6458333 0 0 1 2.64583,-2.64583 2.6458333,2.6458333 0 0 1 2.64583,2.64583 z"
       id="path832"
       inkscape:connector-curvature="0" />
    <path
       inkscape:connector-curvature="0"
       style="fill:none;fill-opacity:1;stroke:#000000;stroke-width:0.26458332;stroke-linecap:butt;stroke-linejoin:miter;stroke-miterlimit:4;stroke-dasharray:none;stroke-opacity:1"
       d="m 23.8125,240.11458 v 0 l -1e-6,-6.61458 h 55.5625 v 6.61458 0"
       id="path840-3"
       sodipodi:nodetypes="cccccc" />
    <path
       inkscape:connector-curvature="0"
       id="path1560-6"
       style="fill:none;fill-opacity:1;stroke:#000000;stroke-width:0.26458332;stroke-linecap:butt;stroke-linejoin:miter;stroke-miterlimit:4;stroke-dasharray:none;stroke-opacity:1"
       d="m 15.874999,242.76042 v 6.61458 0 m -5.291666,-6.61458 H 21.166666 M 5.2916639,240.11458 H 10.58333 v 5.29166 H 5.2916639 Z m 21.1340041,2.59683 a 2.6458333,2.6458333 0 0 1 -2.645833,2.64583 2.6458333,2.6458333 0 0 1 -2.645834,-2.64583 2.6458333,2.6458333 0 0 1 2.645834,-2.64583 2.6458333,2.6458333 0 0 1 2.645833,2.64583 z" />
    <path
       inkscape:connector-curvature="0"
       id="path1560-6-7"
       style="fill:none;fill-opacity:1;stroke:#000000;stroke-width:0.26458332;stroke-linecap:butt;stroke-linejoin:miter;stroke-miterlimit:4;stroke-dasharray:none;stroke-opacity:1"
       d="m 71.437502,242.76043 v 6.61458 0 m -5.291667,-6.61458 h 10.583334 m -15.875003,-2.64584 h 5.291666 v 5.29166 h -5.291666 z m 21.134005,2.59683 a 2.6458333,2.6458333 0 0 1 -2.645833,2.64583 2.6458333,2.6458333 0 0 1 -2.645834,-2.64583 2.6458333,2.6458333 0 0 1 2.645834,-2.64583 2.6458333,2.6458333 0 0 1 2.645833,2.64583 z" />
    <path
       inkscape:connector-curvature="0"
       id="path1560-6-7-5"
       style="fill:none;fill-opacity:1;stroke:#000000;stroke-width:0.26458332;stroke-linecap:butt;stroke-linejoin:miter;stroke-miterlimit:4;stroke-dasharray:none;stroke-opacity:1"
       d="m 63.499999,252.02083 v 6.61458 0 m -5.291667,-6.61458 h 10.583334 m -15.875003,-2.64584 h 5.291666 v 5.29166 h -5.291666 z m 21.134005,2.59683 a 2.6458333,2.6458333 0 0 1 -2.645833,2.64583 2.6458333,2.6458333 0 0 1 -2.645834,-2.64583 2.6458333,2.6458333 0 0 1 2.645834,-2.64583 2.6458333,2.6458333 0 0 1 2.645833,2.64583 z" />
    <path
       inkscape:connector-curvature="0"
       id="path1560-6-7-3"
       style="fill:none;fill-opacity:1;stroke:#000000;stroke-width:0.26458332;stroke-linecap:butt;stroke-linejoin:miter;stroke-miterlimit:4;stroke-dasharray:none;stroke-opacity:1"
       d="m 23.8125,252.02083 v 6.61458 0 m -5.291668,-6.61458 h 10.583335 m -15.875004,-2.64584 h 5.291666 v 5.29166 h -5.291666 z m 21.134006,2.59683 a 2.6458333,2.6458333 0 0 1 -2.645833,2.64583 2.6458333,2.6458333 0 0 1 -2.645834,-2.64583 2.6458333,2.6458333 0 0 1 2.645834,-2.64583 2.6458333,2.6458333 0 0 1 2.645833,2.64583 z" />
    <path
       inkscape:connector-curvature="0"
       id="path1560-6-7-56"
       style="fill:none;fill-opacity:1;stroke:#000000;stroke-width:0.26458332;stroke-linecap:butt;stroke-linejoin:miter;stroke-miterlimit:4;stroke-dasharray:none;stroke-opacity:1"
       d="m 55.562499,261.28125 v 6.61458 0 m -5.291667,-6.61458 h 10.583334 m -15.875003,-2.64584 h 5.291666 v 5.29166 h -5.291666 z m 21.134005,2.59683 a 2.6458333,2.6458333 0 0 1 -2.645833,2.64583 2.6458333,2.6458333 0 0 1 -2.645834,-2.64583 2.6458333,2.6458333 0 0 1 2.645834,-2.64583 2.6458333,2.6458333 0 0 1 2.645833,2.64583 z" />
    <path
       inkscape:connector-curvature="0"
       id="path1560-6-7-2"
       style="fill:none;fill-opacity:1;stroke:#000000;stroke-width:0.26458332;stroke-linecap:butt;stroke-linejoin:miter;stroke-miterlimit:4;stroke-dasharray:none;stroke-opacity:1"
       d="m 31.75,261.28125 v 6.61458 0 m -5.291667,-6.61458 h 10.583334 m -15.875003,-2.64584 h 5.291666 v 5.29166 h -5.291666 z m 21.134005,2.59683 a 2.6458333,2.6458333 0 0 1 -2.645833,2.64583 2.6458333,2.6458333 0 0 1 -2.645834,-2.64583 2.6458333,2.6458333 0 0 1 2.645834,-2.64583 2.6458333,2.6458333 0 0 1 2.645833,2.64583 z" />
    <path
       inkscape:connector-curvature="0"
       style="fill:none;fill-opacity:1;stroke:#000000;stroke-width:0.26458332;stroke-linecap:butt;stroke-linejoin:miter;stroke-miterlimit:4;stroke-dasharray:none;stroke-opacity:1"
       d="m 76.729165,258.63542 h 5.291667 v 5.29166 h -5.291667 z"
       id="path836-9" />
    <path
       inkscape:connector-curvature="0"
       style="fill:none;fill-opacity:1;stroke:#000000;stroke-width:0.26458332;stroke-linecap:butt;stroke-linejoin:miter;stroke-miterlimit:4;stroke-dasharray:none;stroke-opacity:1"
       d="M 66.145833,261.28125 H 76.729166"
       id="path838-1" />
    <path
       style="fill:none;fill-opacity:1;stroke:#000000;stroke-width:0.26458332;stroke-linecap:butt;stroke-linejoin:miter;stroke-miterlimit:4;stroke-dasharray:none;stroke-opacity:1"
       d="m 71.437499,261.28125 v 6.61458 0"
       id="path840-2"
       inkscape:connector-curvature="0" />
    <path
       inkscape:connector-curvature="0"
       id="path1560-6-7-2-7"
       style="fill:none;fill-opacity:1;stroke:#000000;stroke-width:0.26458332;stroke-linecap:butt;stroke-linejoin:miter;stroke-miterlimit:4;stroke-dasharray:none;stroke-opacity:1"
       d="m 79.375,270.54167 v 6.61458 0 m -5.291668,-6.61458 h 10.583335 m -15.875004,-2.64584 h 5.291667 v 5.29166 h -5.291667 z m 21.134006,2.59683 a 2.6458333,2.6458333 0 0 1 -2.645833,2.64583 2.6458333,2.6458333 0 0 1 -2.645834,-2.64583 2.6458333,2.6458333 0 0 1 2.645834,-2.64583 2.6458333,2.6458333 0 0 1 2.645833,2.64583 z" />
    <path
       inkscape:connector-curvature="0"
       id="path1560-6-7-2-0"
       style="fill:none;fill-opacity:1;stroke:#000000;stroke-width:0.26458332;stroke-linecap:butt;stroke-linejoin:miter;stroke-miterlimit:4;stroke-dasharray:none;stroke-opacity:1"
       d="m 23.8125,270.54167 v 6.61458 0 m -5.291667,-6.61458 h 10.583334 m -15.875003,-2.64584 h 5.291666 v 5.29166 h -5.291666 z m 21.134005,2.59683 a 2.6458333,2.6458333 0 0 1 -2.645833,2.64583 2.6458333,2.6458333 0 0 1 -2.645834,-2.64583 2.6458333,2.6458333 0 0 1 2.645834,-2.64583 2.6458333,2.6458333 0 0 1 2.645833,2.64583 z" />
    <path
       inkscape:connector-curvature="0"
       id="path1560-6-7-2-7-9"
       style="fill:none;fill-opacity:1;stroke:#000000;stroke-width:0.26458332;stroke-linecap:butt;stroke-linejoin:miter;stroke-miterlimit:4;stroke-dasharray:none;stroke-opacity:1"
       d="m 47.624999,270.54167 v 6.61458 0 m -5.291669,-6.61458 h 10.583336 m -15.875005,-2.64584 h 5.291667 v 5.29166 h -5.291667 z m 21.134007,2.59683 a 2.6458333,2.6458333 0 0 1 -2.645833,2.64583 2.6458333,2.6458333 0 0 1 -2.645834,-2.64583 2.6458333,2.6458333 0 0 1 2.645834,-2.64583 2.6458333,2.6458333 0 0 1 2.645833,2.64583 z" />
    <path
       style="fill:none;fill-opacity:1;stroke:#000000;stroke-width:0.26458332;stroke-linecap:butt;stroke-linejoin:miter;stroke-miterlimit:4;stroke-dasharray:none;stroke-opacity:1"
       d="m 82.020832,279.80208 a 2.6458333,2.6458333 0 0 1 -2.645833,2.64583 2.6458333,2.6458333 0 0 1 -2.645834,-2.64583 2.6458333,2.6458333 0 0 1 2.645834,-2.64583 2.6458333,2.6458333 0 0 1 2.645833,2.64583 z"
       id="path832-3"
       inkscape:connector-curvature="0" />
    <path
       style="fill:none;fill-opacity:1;stroke:#000000;stroke-width:0.26458332;stroke-linecap:butt;stroke-linejoin:miter;stroke-miterlimit:4;stroke-dasharray:none;stroke-opacity:1"
       d="m 26.458333,279.80208 a 2.6458333,2.6458333 0 0 1 -2.645833,2.64583 2.6458333,2.6458333 0 0 1 -2.645834,-2.64583 2.6458333,2.6458333 0 0 1 2.645834,-2.64583 2.6458333,2.6458333 0 0 1 2.645833,2.64583 z"
       id="path832-6"
       inkscape:connector-curvature="0" />
    <path
       style="fill:none;fill-opacity:1;stroke:#000000;stroke-width:0.26458332;stroke-linecap:butt;stroke-linejoin:miter;stroke-miterlimit:4;stroke-dasharray:none;stroke-opacity:1"
       d="m 44.979166,277.15625 h 5.291667 v 5.29166 h -5.291667 z"
       id="path836-0"
       inkscape:connector-curvature="0" />
    <circle
       style="opacity:1;fill:#ccff00;fill-opacity:1;stroke:none;stroke-width:0.26458332;stroke-linecap:butt;stroke-miterlimit:4;stroke-dasharray:none;stroke-opacity:1"
       id="path1757"
       cx="22.456984"
       cy="279.94028"
       r="0.66145831" />
    <circle
       style="opacity:1;fill:#ccff00;fill-opacity:1;stroke:none;stroke-width:0.26458332;stroke-linecap:butt;stroke-miterlimit:4;stroke-dasharray:none;stroke-opacity:1"
       id="path1757-6"
       cx="46.340454"
       cy="279.75711"
       r="0.66145831" />
    <circle
       style="opacity:1;fill:#ccff00;fill-opacity:1;stroke:none;stroke-width:0.26458332;stroke-linecap:butt;stroke-miterlimit:4;stroke-dasharray:none;stroke-opacity:1"
       id="path1757-2"
       cx="78.153175"
       cy="279.91309"
       r="0.66145831" />
    <g
       id="g1904"
       transform="translate(34.215923,-31.839129)">
      <circle
         r="0.66145831"
         cy="293.21896"
         cx="30.642067"
         id="path1757-61"
         style="opacity:1;fill:#000000;fill-opacity:1;stroke:none;stroke-width:0.26458332;stroke-linecap:butt;stroke-miterlimit:4;stroke-dasharray:none;stroke-opacity:1" />
    </g>
    <use
       x="0"
       y="0"
       xlink:href="#path1757-61"
       id="use1795"
       transform="translate(-5.496335,-13.319947)"
       width="100%"
       height="100%" />
    <use
       x="0"
       y="0"
       xlink:href="#path1757-61"
       id="use1797"
       transform="translate(18.42015,-13.369464)"
       width="100%"
       height="100%" />
    <use
       x="0"
       y="0"
       xlink:href="#path1757-61"
       id="use1799"
       transform="translate(50.11073,-13.319948)"
       width="100%"
       height="100%" />
    <circle
       style="opacity:1;fill:#ccff00;fill-opacity:1;stroke:none;stroke-width:0.26458332;stroke-linecap:butt;stroke-miterlimit:4;stroke-dasharray:none;stroke-opacity:1"
       id="path1757-8"
       cx="30.465458"
       cy="270.55359"
       r="0.66145831" />
    <circle
       style="opacity:1;fill:#ccff00;fill-opacity:1;stroke:none;stroke-width:0.26458332;stroke-linecap:butt;stroke-miterlimit:4;stroke-dasharray:none;stroke-opacity:1"
       id="path1757-7"
       cx="22.478441"
       cy="261.38477"
       r="0.66145831" />
    <circle
       style="opacity:1;fill:#ccff00;fill-opacity:1;stroke:none;stroke-width:0.26458332;stroke-linecap:butt;stroke-miterlimit:4;stroke-dasharray:none;stroke-opacity:1"
       id="path1757-9"
       cx="14.639975"
       cy="252.02533"
       r="0.66145831" />
    <circle
       style="opacity:1;fill:#ccff00;fill-opacity:1;stroke:none;stroke-width:0.26458332;stroke-linecap:butt;stroke-miterlimit:4;stroke-dasharray:none;stroke-opacity:1"
       id="path1757-20"
       cx="22.547764"
       cy="242.81442"
       r="0.66145831" />
    <circle
       style="opacity:1;fill:#ccff00;fill-opacity:1;stroke:none;stroke-width:0.26458332;stroke-linecap:butt;stroke-miterlimit:4;stroke-dasharray:none;stroke-opacity:1"
       id="path1757-23"
       cx="70.216499"
       cy="270.57422"
       r="0.66145831" />
    <circle
       style="opacity:1;fill:#ccff00;fill-opacity:1;stroke:none;stroke-width:0.26458332;stroke-linecap:butt;stroke-miterlimit:4;stroke-dasharray:none;stroke-opacity:1"
       id="path1757-75"
       cx="62.151913"
       cy="261.39221"
       r="0.66145831" />
    <circle
       style="opacity:1;fill:#ccff00;fill-opacity:1;stroke:none;stroke-width:0.26458332;stroke-linecap:butt;stroke-miterlimit:4;stroke-dasharray:none;stroke-opacity:1"
       id="path1757-92"
       cx="54.23587"
       cy="270.55359"
       r="0.66145831" />
    <circle
       style="opacity:1;fill:#ccff00;fill-opacity:1;stroke:none;stroke-width:0.26458332;stroke-linecap:butt;stroke-miterlimit:4;stroke-dasharray:none;stroke-opacity:1"
       id="path1757-28"
       cx="70.059708"
       cy="252.02533"
       r="0.66145831" />
    <circle
       style="opacity:1;fill:#ccff00;fill-opacity:1;stroke:none;stroke-width:0.26458332;stroke-linecap:butt;stroke-miterlimit:4;stroke-dasharray:none;stroke-opacity:1"
       id="path1757-97"
       cx="78.062401"
       cy="242.82846"
       r="0.66145831" />
    <path
       style="fill:none;stroke:#ccff00;stroke-width:0.26458333;stroke-linecap:butt;stroke-linejoin:miter;stroke-opacity:1;stroke-miterlimit:4;stroke-dasharray:none"
       d="m 46.302083,279.80208 7.9375,-9.26041 7.9375,-9.26042"
       id="path1864"
       inkscape:connector-curvature="0" />
    <path
       style="fill:none;stroke:#ccff00;stroke-width:0.26458332px;stroke-linecap:butt;stroke-linejoin:miter;stroke-opacity:1"
       d="M 78.052082,279.80208 62.177083,261.28125"
       id="path1866"
       inkscape:connector-curvature="0" />
    <circle
       style="opacity:1;fill:#ccff00;fill-opacity:1;stroke:none;stroke-width:0.26458332;stroke-linecap:butt;stroke-miterlimit:4;stroke-dasharray:none;stroke-opacity:1"
       id="path1757-3"
       cx="58.331707"
       cy="226.93942"
       r="0.66145831" />
    <path
       style="fill:none;stroke:#ccff00;stroke-width:0.26458332px;stroke-linecap:butt;stroke-linejoin:miter;stroke-opacity:1"
       d="M 62.177083,261.28125 78.052082,242.76042"
       id="path1874"
       inkscape:connector-curvature="0" />
    <path
       style="fill:none;stroke:#ccff00;stroke-width:0.26458332px;stroke-linecap:butt;stroke-linejoin:miter;stroke-opacity:1"
       d="m 22.489583,279.80208 7.9375,-9.26041 -7.9375,-9.26042 -7.9375,-9.26042 7.9375,-9.26041 35.71875,-15.875 19.843749,15.875"
       id="path1887"
       inkscape:connector-curvature="0" />
    <use
       x="0"
       y="0"
       xlink:href="#path1757-61"
       id="use1889"
       transform="translate(-16.043356,-22.629055)"
       width="100%"
       height="100%" />
    <use
       x="0"
       y="0"
       xlink:href="#path1757-61"
       id="use1891"
       transform="translate(-13.468497,-22.629055)"
       width="100%"
       height="100%" />
    <use
       x="0"
       y="0"
       xlink:href="#path1757-61"
       id="use1893"
       transform="translate(2.327277,-22.530022)"
       width="100%"
       height="100%" />
    <use
       x="0"
       y="0"
       xlink:href="#path1757-61"
       id="use1895"
       transform="translate(7.823612,-22.530022)"
       width="100%"
       height="100%" />
    <use
       x="0"
       y="0"
       xlink:href="#path1757-61"
       id="use1897"
       transform="translate(10.398472,-22.530022)"
       width="100%"
       height="100%" />
    <use
       x="0"
       y="0"
       xlink:href="#path1757-61"
       id="use1899"
       transform="translate(7.823612,-31.888646)"
       width="100%"
       height="100%" />
    <use
       x="0"
       y="0"
       xlink:href="#path1757-61"
       id="use1901"
       transform="translate(10.348956,-31.83913)"
       width="100%"
       height="100%" />
    <use
       x="0"
       y="0"
       xlink:href="#g1904"
       id="use1906"
       transform="translate(21.14356,9.1605581)"
       width="100%"
       height="100%" />
    <use
       x="0"
       y="0"
       xlink:href="#g1904"
       id="use1908"
       transform="translate(23.767936,9.2100746)"
       width="100%"
       height="100%" />
    <use
       x="0"
       y="0"
       xlink:href="#g1904"
       id="use1910"
       transform="translate(7.9226455,9.3091081)"
       width="100%"
       height="100%" />
    <use
       x="0"
       y="0"
       xlink:href="#g1904"
       id="use1912"
       transform="translate(-7.9721615,9.2100751)"
       width="100%"
       height="100%" />
    <use
       x="0"
       y="0"
       xlink:href="#g1904"
       id="use1914"
       transform="translate(-18.469666,-0.04951653)"
       width="100%"
       height="100%" />
    <use
       x="0"
       y="0"
       xlink:href="#g1904"
       id="use1916"
       transform="translate(-15.795773)"
       width="100%"
       height="100%" />
    <use
       x="0"
       y="0"
       xlink:href="#g1904"
       id="use1918"
       transform="translate(13.319948,-0.14854998)"
       width="100%"
       height="100%" />
    <use
       x="0"
       y="0"
       xlink:href="#g1904"
       id="use1920"
       transform="translate(15.845291,-0.04951653)"
       width="100%"
       height="100%" />
    <use
       x="0"
       y="0"
       xlink:href="#g1904"
       id="use1922"
       transform="translate(-34.314956,-9.2595909)"
       width="100%"
       height="100%" />
    <use
       x="0"
       y="0"
       xlink:href="#use1922"
       id="use1924"
       width="100%"
       height="100%" />
    <use
       x="0"
       y="0"
       xlink:href="#g1904"
       id="use1926"
       transform="translate(-31.789613,-9.2595909)"
       width="100%"
       height="100%" />
    <use
       x="0"
       y="0"
       xlink:href="#g1904"
       id="use1928"
       transform="translate(-58.181924,-18.618216)"
       width="100%"
       height="100%" />
    <use
       x="0"
       y="0"
       xlink:href="#g1904"
       id="use1930"
       transform="translate(-55.656581,-18.568699)"
       width="100%"
       height="100%" />
    <use
       x="0"
       y="0"
       xlink:href="#g1904"
       id="use1932"
       transform="translate(-39.712258,-18.519183)"
       width="100%"
       height="100%" />
    <use
       x="0"
       y="0"
       xlink:href="#g1904"
       id="use1934"
       transform="translate(-10.547021,-9.2595909)"
       width="100%"
       height="100%" />
    <use
       x="0"
       y="0"
       xlink:href="#g1904"
       id="use1936"
       transform="translate(-7.9721625,-9.3091079)"
       width="100%"
       height="100%" />
    <use
       x="0"
       y="0"
       xlink:href="#g1904"
       id="use1938"
       transform="translate(7.8236125,-9.3091079)"
       width="100%"
       height="100%" />
    <use
       x="0"
       y="0"
       xlink:href="#g1904"
       id="use1940"
       transform="translate(-2.6243765,-18.519183)"
       width="100%"
       height="100%" />
    <use
       x="0"
       y="0"
       xlink:href="#g1904"
       id="use1942"
       transform="translate(-4.8362466e-7,-18.519183)"
       width="100%"
       height="100%" />
    <use
       x="0"
       y="0"
       xlink:href="#g1904"
       id="use1944"
       transform="translate(15.894807,-18.618216)"
       width="100%"
       height="100%" />
    <use
       x="0"
       y="0"
       xlink:href="#g1904"
       id="use1946"
       transform="translate(-4.0603555,-34.389232)"
       width="100%"
       height="100%" />
    <use
       x="0"
       y="0"
       xlink:href="#use1946"
       id="use1948"
       transform="translate(-18.42015,-0.0742768)"
       width="100%"
       height="100%" />
    <use
       x="0"
       y="0"
       xlink:href="#use1948"
       id="use1950"
       transform="translate(2.6243762,0.09903706)"
       width="100%"
       height="100%" />
    <use
       x="0"
       y="0"
       xlink:href="#g1904"
       id="use1952"
       transform="translate(-39.613225)"
       width="100%"
       height="100%" />
    <use
       x="0"
       y="0"
       xlink:href="#use1952"
       id="use1954"
       transform="translate(-8.2197443,-9.309108)"
       width="100%"
       height="100%" />
    <text
       xml:space="preserve"
       style="font-style:normal;font-variant:normal;font-weight:normal;font-stretch:normal;font-size:3.52777767px;line-height:1.25;font-family:'Fira Code';-inkscape-font-specification:'Fira Code, Normal';font-variant-ligatures:normal;font-variant-caps:normal;font-variant-numeric:normal;font-feature-settings:normal;text-align:start;letter-spacing:0px;word-spacing:0px;writing-mode:lr-tb;text-anchor:start;fill:#000000;fill-opacity:1;stroke:none;stroke-width:0.26458332"
       x="14.552083"
       y="287.73959"
       id="text2601"><tspan
         sodipodi:role="line"
         id="tspan2599"
         x="14.552083"
         y="287.73959"
         style="font-style:normal;font-variant:normal;font-weight:normal;font-stretch:normal;font-size:3.52777767px;font-family:'Fira Code';-inkscape-font-specification:'Fira Code, Normal';font-variant-ligatures:normal;font-variant-caps:normal;font-variant-numeric:normal;font-feature-settings:normal;text-align:start;writing-mode:lr-tb;text-anchor:start;stroke-width:0.26458332">aga<tspan
   style="fill:#ccff00;fill-opacity:1"
   id="tspan2636">c</tspan>tccga</tspan><tspan
         sodipodi:role="line"
         x="14.552083"
         y="292.14932"
         style="font-style:normal;font-variant:normal;font-weight:normal;font-stretch:normal;font-size:3.52777767px;font-family:'Fira Code';-inkscape-font-specification:'Fira Code, Normal';font-variant-ligatures:normal;font-variant-caps:normal;font-variant-numeric:normal;font-feature-settings:normal;text-align:start;writing-mode:lr-tb;text-anchor:start;stroke-width:0.26458332"
         id="tspan2603">agcatccga</tspan></text>
    <text
       xml:space="preserve"
       style="font-style:normal;font-variant:normal;font-weight:normal;font-stretch:normal;font-size:3.52777767px;line-height:1.25;font-family:'Fira Code';-inkscape-font-specification:'Fira Code, Normal';font-variant-ligatures:normal;font-variant-caps:normal;font-variant-numeric:normal;font-feature-settings:normal;text-align:start;letter-spacing:0px;word-spacing:0px;writing-mode:lr-tb;text-anchor:start;fill:#000000;fill-opacity:1;stroke:none;stroke-width:0.26458332"
       x="38.364582"
       y="287.73959"
       id="text2601-2"><tspan
         sodipodi:role="line"
         id="tspan2599-9"
         x="38.364582"
         y="287.73959"
         style="font-style:normal;font-variant:normal;font-weight:normal;font-stretch:normal;font-size:3.52777767px;font-family:'Fira Code';-inkscape-font-specification:'Fira Code, Normal';font-variant-ligatures:normal;font-variant-caps:normal;font-variant-numeric:normal;font-feature-settings:normal;text-align:start;writing-mode:lr-tb;text-anchor:start;stroke-width:0.26458332">agg<tspan
   style="fill:#ccff00"
   id="tspan2642">c</tspan>tcgga</tspan><tspan
         sodipodi:role="line"
         x="38.364582"
         y="292.14932"
         style="font-style:normal;font-variant:normal;font-weight:normal;font-stretch:normal;font-size:3.52777767px;font-family:'Fira Code';-inkscape-font-specification:'Fira Code, Normal';font-variant-ligatures:normal;font-variant-caps:normal;font-variant-numeric:normal;font-feature-settings:normal;text-align:start;writing-mode:lr-tb;text-anchor:start;stroke-width:0.26458332"
         id="tspan2603-9">agcgtccga</tspan></text>
    <text
       xml:space="preserve"
       style="font-style:normal;font-variant:normal;font-weight:normal;font-stretch:normal;font-size:3.52777767px;line-height:1.25;font-family:'Fira Code';-inkscape-font-specification:'Fira Code, Normal';font-variant-ligatures:normal;font-variant-caps:normal;font-variant-numeric:normal;font-feature-settings:normal;text-align:start;letter-spacing:0px;word-spacing:0px;writing-mode:lr-tb;text-anchor:start;fill:#000000;fill-opacity:1;stroke:none;stroke-width:0.26458332"
       x="70.114586"
       y="287.73959"
       id="text2601-6"><tspan
         sodipodi:role="line"
         id="tspan2599-0"
         x="70.114586"
         y="287.73959"
         style="font-style:normal;font-variant:normal;font-weight:normal;font-stretch:normal;font-size:3.52777767px;font-family:'Fira Code';-inkscape-font-specification:'Fira Code, Normal';font-variant-ligatures:normal;font-variant-caps:normal;font-variant-numeric:normal;font-feature-settings:normal;text-align:start;writing-mode:lr-tb;text-anchor:start;stroke-width:0.26458332">agg<tspan
   style="fill:#ccff00"
   id="tspan2644">c</tspan>tccga</tspan><tspan
         sodipodi:role="line"
         x="70.114586"
         y="292.14932"
         style="font-style:normal;font-variant:normal;font-weight:normal;font-stretch:normal;font-size:3.52777767px;font-family:'Fira Code';-inkscape-font-specification:'Fira Code, Normal';font-variant-ligatures:normal;font-variant-caps:normal;font-variant-numeric:normal;font-feature-settings:normal;text-align:start;writing-mode:lr-tb;text-anchor:start;stroke-width:0.26458332"
         id="tspan2603-2">agcctgcga</tspan></text>
  </g>
</svg>
