<?xml version="1.0" encoding="UTF-8" standalone="no"?>
<!-- Created with Inkscape (http://www.inkscape.org/) -->

<svg
   xmlns:dc="http://purl.org/dc/elements/1.1/"
   xmlns:cc="http://creativecommons.org/ns#"
   xmlns:rdf="http://www.w3.org/1999/02/22-rdf-syntax-ns#"
   xmlns:svg="http://www.w3.org/2000/svg"
   xmlns="http://www.w3.org/2000/svg"
   xmlns:sodipodi="http://sodipodi.sourceforge.net/DTD/sodipodi-0.dtd"
   xmlns:inkscape="http://www.inkscape.org/namespaces/inkscape"
   width="400"
   height="300"
   viewBox="0 0 105.83333 79.374999"
   version="1.1"
   id="svg8"
   inkscape:version="0.92.4 (unknown)"
   sodipodi:docname="pedigree.svg">
  <defs
     id="defs2" />
  <sodipodi:namedview
     id="base"
     pagecolor="#ffffff"
     bordercolor="#666666"
     borderopacity="1.0"
     inkscape:pageopacity="0.0"
     inkscape:pageshadow="2"
     inkscape:zoom="5.3433333"
     inkscape:cx="200"
     inkscape:cy="150"
     inkscape:document-units="mm"
     inkscape:current-layer="layer1"
     showgrid="true"
     units="px"
     inkscape:window-width="2518"
     inkscape:window-height="1836"
     inkscape:window-x="401"
     inkscape:window-y="76"
     inkscape:window-maximized="0">
    <inkscape:grid
       type="xygrid"
       id="grid3713"
       empspacing="5"
       spacingx="0.26458333"
       spacingy="0.26458333" />
  </sodipodi:namedview>
  <metadata
     id="metadata5">
    <rdf:RDF>
      <cc:Work
         rdf:about="">
        <dc:format>image/svg+xml</dc:format>
        <dc:type
           rdf:resource="http://purl.org/dc/dcmitype/StillImage" />
        <dc:title></dc:title>
      </cc:Work>
    </rdf:RDF>
  </metadata>
  <g
     inkscape:label="Layer 1"
     inkscape:groupmode="layer"
     id="layer1"
     transform="translate(0,-217.625)">
    <path
       id="path1560"
       style="fill:none;stroke:#000000;stroke-width:0.26458333;stroke-linecap:butt;stroke-linejoin:miter;stroke-opacity:1;fill-opacity:1;stroke-miterlimit:4;stroke-dasharray:none"
       d="m 51.593749,226.88542 v 6.61458 0 m -5.291666,-6.61458 h 10.583333 m -15.875002,-2.64584 h 5.291667 v 5.29166 h -5.291667 z m 21.134004,2.59683 a 2.6458333,2.6458333 0 0 1 -2.645833,2.64583 2.6458333,2.6458333 0 0 1 -2.645834,-2.64583 2.6458333,2.6458333 0 0 1 2.645834,-2.64583 2.6458333,2.6458333 0 0 1 2.645833,2.64583 z" />
    <path
       style="fill:none;fill-opacity:1;stroke:#000000;stroke-width:0.26458332;stroke-linecap:butt;stroke-linejoin:miter;stroke-miterlimit:4;stroke-dasharray:none;stroke-opacity:1"
       d="m 130.96875,262.60417 v 6.61458 0"
       id="path840"
       inkscape:connector-curvature="0" />
    <path
       style="fill:none;fill-opacity:1;stroke:#000000;stroke-width:0.26458332;stroke-linecap:butt;stroke-linejoin:miter;stroke-miterlimit:4;stroke-dasharray:none;stroke-opacity:1"
       d="m 125.67709,262.60417 h 10.58333"
       id="path838"
       inkscape:connector-curvature="0" />
    <path
       style="fill:none;fill-opacity:1;stroke:#000000;stroke-width:0.26458332;stroke-linecap:butt;stroke-linejoin:miter;stroke-miterlimit:4;stroke-dasharray:none;stroke-opacity:1"
       d="m 120.38542,259.95833 h 5.29167 v 5.29166 h -5.29167 z"
       id="path836"
       inkscape:connector-curvature="0" />
    <path
       style="fill:none;fill-opacity:1;stroke:#000000;stroke-width:0.26458332;stroke-linecap:butt;stroke-linejoin:miter;stroke-miterlimit:4;stroke-dasharray:none;stroke-opacity:1"
       d="m 141.51942,262.55516 a 2.6458333,2.6458333 0 0 1 -2.64583,2.64583 2.6458333,2.6458333 0 0 1 -2.64583,-2.64583 2.6458333,2.6458333 0 0 1 2.64583,-2.64583 2.6458333,2.6458333 0 0 1 2.64583,2.64583 z"
       id="path832"
       inkscape:connector-curvature="0" />
    <path
       inkscape:connector-curvature="0"
       style="fill:none;fill-opacity:1;stroke:#000000;stroke-width:0.26458332;stroke-linecap:butt;stroke-linejoin:miter;stroke-miterlimit:4;stroke-dasharray:none;stroke-opacity:1"
       d="m 23.8125,240.11458 v 0 l -1e-6,-6.61458 h 55.5625 v 6.61458 0"
       id="path840-3"
       sodipodi:nodetypes="cccccc" />
    <path
       inkscape:connector-curvature="0"
       id="path1560-6"
       style="fill:none;fill-opacity:1;stroke:#000000;stroke-width:0.26458332;stroke-linecap:butt;stroke-linejoin:miter;stroke-miterlimit:4;stroke-dasharray:none;stroke-opacity:1"
       d="m 15.874999,242.76042 v 6.61458 0 m -5.291666,-6.61458 H 21.166666 M 5.2916639,240.11458 H 10.58333 v 5.29166 H 5.2916639 Z m 21.1340041,2.59683 a 2.6458333,2.6458333 0 0 1 -2.645833,2.64583 2.6458333,2.6458333 0 0 1 -2.645834,-2.64583 2.6458333,2.6458333 0 0 1 2.645834,-2.64583 2.6458333,2.6458333 0 0 1 2.645833,2.64583 z" />
    <path
       inkscape:connector-curvature="0"
       id="path1560-6-7"
       style="fill:none;fill-opacity:1;stroke:#000000;stroke-width:0.26458332;stroke-linecap:butt;stroke-linejoin:miter;stroke-miterlimit:4;stroke-dasharray:none;stroke-opacity:1"
       d="m 71.437502,242.76043 v 6.61458 0 m -5.291667,-6.61458 h 10.583334 m -15.875003,-2.64584 h 5.291666 v 5.29166 h -5.291666 z m 21.134005,2.59683 a 2.6458333,2.6458333 0 0 1 -2.645833,2.64583 2.6458333,2.6458333 0 0 1 -2.645834,-2.64583 2.6458333,2.6458333 0 0 1 2.645834,-2.64583 2.6458333,2.6458333 0 0 1 2.645833,2.64583 z" />
    <path
       inkscape:connector-curvature="0"
       id="path1560-6-7-5"
       style="fill:none;fill-opacity:1;stroke:#000000;stroke-width:0.26458332;stroke-linecap:butt;stroke-linejoin:miter;stroke-miterlimit:4;stroke-dasharray:none;stroke-opacity:1"
       d="m 63.499999,252.02083 v 6.61458 0 m -5.291667,-6.61458 h 10.583334 m -15.875003,-2.64584 h 5.291666 v 5.29166 h -5.291666 z m 21.134005,2.59683 a 2.6458333,2.6458333 0 0 1 -2.645833,2.64583 2.6458333,2.6458333 0 0 1 -2.645834,-2.64583 2.6458333,2.6458333 0 0 1 2.645834,-2.64583 2.6458333,2.6458333 0 0 1 2.645833,2.64583 z" />
    <path
       inkscape:connector-curvature="0"
       id="path1560-6-7-3"
       style="fill:none;fill-opacity:1;stroke:#000000;stroke-width:0.26458332;stroke-linecap:butt;stroke-linejoin:miter;stroke-miterlimit:4;stroke-dasharray:none;stroke-opacity:1"
       d="m 23.8125,252.02083 v 6.61458 0 m -5.291668,-6.61458 h 10.583335 m -15.875004,-2.64584 h 5.291666 v 5.29166 h -5.291666 z m 21.134006,2.59683 a 2.6458333,2.6458333 0 0 1 -2.645833,2.64583 2.6458333,2.6458333 0 0 1 -2.645834,-2.64583 2.6458333,2.6458333 0 0 1 2.645834,-2.64583 2.6458333,2.6458333 0 0 1 2.645833,2.64583 z" />
    <path
       inkscape:connector-curvature="0"
       id="path1560-6-7-56"
       style="fill:none;fill-opacity:1;stroke:#000000;stroke-width:0.26458332;stroke-linecap:butt;stroke-linejoin:miter;stroke-miterlimit:4;stroke-dasharray:none;stroke-opacity:1"
       d="m 55.562499,261.28125 v 6.61458 0 m -5.291667,-6.61458 h 10.583334 m -15.875003,-2.64584 h 5.291666 v 5.29166 h -5.291666 z m 21.134005,2.59683 a 2.6458333,2.6458333 0 0 1 -2.645833,2.64583 2.6458333,2.6458333 0 0 1 -2.645834,-2.64583 2.6458333,2.6458333 0 0 1 2.645834,-2.64583 2.6458333,2.6458333 0 0 1 2.645833,2.64583 z" />
    <path
       inkscape:connector-curvature="0"
       id="path1560-6-7-2"
       style="fill:none;fill-opacity:1;stroke:#000000;stroke-width:0.26458332;stroke-linecap:butt;stroke-linejoin:miter;stroke-miterlimit:4;stroke-dasharray:none;stroke-opacity:1"
       d="m 31.75,261.28125 v 6.61458 0 m -5.291667,-6.61458 h 10.583334 m -15.875003,-2.64584 h 5.291666 v 5.29166 h -5.291666 z m 21.134005,2.59683 a 2.6458333,2.6458333 0 0 1 -2.645833,2.64583 2.6458333,2.6458333 0 0 1 -2.645834,-2.64583 2.6458333,2.6458333 0 0 1 2.645834,-2.64583 2.6458333,2.6458333 0 0 1 2.645833,2.64583 z" />
    <path
       inkscape:connector-curvature="0"
       style="fill:none;fill-opacity:1;stroke:#000000;stroke-width:0.26458332;stroke-linecap:butt;stroke-linejoin:miter;stroke-miterlimit:4;stroke-dasharray:none;stroke-opacity:1"
       d="m 76.729165,258.63542 h 5.291667 v 5.29166 h -5.291667 z"
       id="path836-9" />
    <path
       inkscape:connector-curvature="0"
       style="fill:none;fill-opacity:1;stroke:#000000;stroke-width:0.26458332;stroke-linecap:butt;stroke-linejoin:miter;stroke-miterlimit:4;stroke-dasharray:none;stroke-opacity:1"
       d="M 66.145833,261.28125 H 76.729166"
       id="path838-1" />
    <path
       style="fill:none;fill-opacity:1;stroke:#000000;stroke-width:0.26458332;stroke-linecap:butt;stroke-linejoin:miter;stroke-miterlimit:4;stroke-dasharray:none;stroke-opacity:1"
       d="m 71.437499,261.28125 v 6.61458 0"
       id="path840-2"
       inkscape:connector-curvature="0" />
    <path
       inkscape:connector-curvature="0"
       id="path1560-6-7-2-7"
       style="fill:none;fill-opacity:1;stroke:#000000;stroke-width:0.26458332;stroke-linecap:butt;stroke-linejoin:miter;stroke-miterlimit:4;stroke-dasharray:none;stroke-opacity:1"
       d="m 79.375,270.54167 v 6.61458 0 m -5.291668,-6.61458 h 10.583335 m -15.875004,-2.64584 h 5.291667 v 5.29166 h -5.291667 z m 21.134006,2.59683 a 2.6458333,2.6458333 0 0 1 -2.645833,2.64583 2.6458333,2.6458333 0 0 1 -2.645834,-2.64583 2.6458333,2.6458333 0 0 1 2.645834,-2.64583 2.6458333,2.6458333 0 0 1 2.645833,2.64583 z" />
    <path
       inkscape:connector-curvature="0"
       id="path1560-6-7-2-0"
       style="fill:none;fill-opacity:1;stroke:#000000;stroke-width:0.26458332;stroke-linecap:butt;stroke-linejoin:miter;stroke-miterlimit:4;stroke-dasharray:none;stroke-opacity:1"
       d="m 23.8125,270.54167 v 6.61458 0 m -5.291667,-6.61458 h 10.583334 m -15.875003,-2.64584 h 5.291666 v 5.29166 h -5.291666 z m 21.134005,2.59683 a 2.6458333,2.6458333 0 0 1 -2.645833,2.64583 2.6458333,2.6458333 0 0 1 -2.645834,-2.64583 2.6458333,2.6458333 0 0 1 2.645834,-2.64583 2.6458333,2.6458333 0 0 1 2.645833,2.64583 z" />
    <path
       inkscape:connector-curvature="0"
       id="path1560-6-7-2-7-9"
       style="fill:none;fill-opacity:1;stroke:#000000;stroke-width:0.26458332;stroke-linecap:butt;stroke-linejoin:miter;stroke-miterlimit:4;stroke-dasharray:none;stroke-opacity:1"
       d="m 47.624999,270.54167 v 6.61458 0 m -5.291669,-6.61458 h 10.583336 m -15.875005,-2.64584 h 5.291667 v 5.29166 h -5.291667 z m 21.134007,2.59683 a 2.6458333,2.6458333 0 0 1 -2.645833,2.64583 2.6458333,2.6458333 0 0 1 -2.645834,-2.64583 2.6458333,2.6458333 0 0 1 2.645834,-2.64583 2.6458333,2.6458333 0 0 1 2.645833,2.64583 z" />
    <path
       style="fill:none;fill-opacity:1;stroke:#000000;stroke-width:0.26458332;stroke-linecap:butt;stroke-linejoin:miter;stroke-miterlimit:4;stroke-dasharray:none;stroke-opacity:1"
       d="m 82.020832,279.80208 a 2.6458333,2.6458333 0 0 1 -2.645833,2.64583 2.6458333,2.6458333 0 0 1 -2.645834,-2.64583 2.6458333,2.6458333 0 0 1 2.645834,-2.64583 2.6458333,2.6458333 0 0 1 2.645833,2.64583 z"
       id="path832-3"
       inkscape:connector-curvature="0" />
    <path
       style="fill:none;fill-opacity:1;stroke:#000000;stroke-width:0.26458332;stroke-linecap:butt;stroke-linejoin:miter;stroke-miterlimit:4;stroke-dasharray:none;stroke-opacity:1"
       d="m 26.458333,279.80208 a 2.6458333,2.6458333 0 0 1 -2.645833,2.64583 2.6458333,2.6458333 0 0 1 -2.645834,-2.64583 2.6458333,2.6458333 0 0 1 2.645834,-2.64583 2.6458333,2.6458333 0 0 1 2.645833,2.64583 z"
       id="path832-6"
       inkscape:connector-curvature="0" />
    <path
       style="fill:none;fill-opacity:1;stroke:#000000;stroke-width:0.26458332;stroke-linecap:butt;stroke-linejoin:miter;stroke-miterlimit:4;stroke-dasharray:none;stroke-opacity:1"
       d="m 44.979166,277.15625 h 5.291667 v 5.29166 h -5.291667 z"
       id="path836-0"
       inkscape:connector-curvature="0" />
  </g>
</svg>
